<?xml version="1.0" standalone="no"?>
<svg version="1.1" id="Layer_1" xmlns="http://www.w3.org/2000/svg" xmlns:xlink="http://www.w3.org/1999/xlink" x="0px" y="0px" width="595.28px" height="595.28px" viewBox="0 0 595.28 595.28" enable-background="new 0 0 595.28 595.28" xml:space="preserve">
<path id="color_x5F_2" fill="#1d4ed8" d="M391.628,348.228c4.413-4.775,9.401-10.591,13.43-15.39
	c-1.153,1.599-2.336,3.184-3.578,4.739C398.512,341.292,395.213,344.901,391.628,348.228z M459.946,271.537
	c-4.891-4.471-10.736-4.948-16.767-4.716c-0.416,0.128-0.875,0.158-1.232,0.055c-2.48,0.129-4.982,0.339-7.454,0.407
	c-6.311,29.544-17.304,60.326-40.528,80.922c-3.484,3.09-7.118,5.896-10.938,8.354c-1.433,1.048-3.221,2.076-5.208,3.06
	c-4.859,2.602-10.013,4.654-15.532,6.026c-1.008,0.25-9.509,2.301-15.083,3.01c-0.302,0.168-0.633,0.281-0.938,0.281
	c-4.714-0.002-9.346-0.108-13.915-0.968c-0.038,0.003-0.06,0.005-0.06,0.005s-0.028-0.014-0.07-0.033
	c-1.435-0.275-2.863-0.619-4.286-1.064c-0.449-0.141-0.615-0.356-0.605-0.591c-56.635-20.843-21.516-99.526,3.868-133.458
	c-0.183-0.671-0.423-1.299-0.718-1.886c-2.093-1.768-5.34-4.328-8.643-6.231c-4.393-1.185-9.576-1.111-14.014-0.209
	c-0.283,0.101-0.595,0.171-0.889,0.196c-2.213,0.517-4.205,1.239-5.77,2.112c-0.356,0.199-1.037,0.278-1.568,0.23
	c-1.879,2.489-3.699,5.053-5.434,7.705c0.037,0.78,0.066,1.56,0.077,2.341c0.008,0.594-1.329,0.995-2.19,1.016
	c-12.346,20.023-20.495,43.868-21.993,66.904c-1.399,21.526,0.156,50.255,17.104,65.993c0.229,0.212-0.785,0.758-1.663,0.978
	c-0.287,0.129-0.575,0.218-0.796,0.227c-0.417,0.016-0.836,0.015-1.254,0.022c-9.412,11.605-22.807,20.216-38.204,19.631
	c-1.965-0.075-0.083-1.81,1.094-1.765c13.856,0.525,25.804-7.497,34.287-17.873c-0.608-0.014-1.217-0.033-1.827-0.062l-2.007,0.317
	c0,0-0.89-0.237-2.408-0.651c-10.554-1.112-21.128-4.286-30.76-8.077c-3.894-1.533-7.988-3.251-11.988-5.256
	c-1.526-0.671-2.949-1.444-4.276-2.283c-5.682-3.251-10.914-7.215-14.809-12.203c-7.291,30.468-2.811,62.435,16.547,87.847
	c13.757,18.06,34.262,34.009,56.957,38.727c0.131-0.069,0.276-0.131,0.45-0.173c11.783-2.855,23.226-7.011,34.021-12.544
	c34.488-17.678,61.741-46.42,83.311-78.175c8.096-11.919,16.644-23.58,24.593-35.581c7.709-11.636,13.439-23.785,18.957-36.552
	c4.923-11.392,10.632-22.837,13.433-34.989c0.058-0.25,0.205-0.463,0.403-0.638c-0.063-0.06-0.14-0.13-0.213-0.198
	C460.576,271.785,460.172,271.743,459.946,271.537z M229.986,437.575c3.697,5.29,8.597,9.979,13.964,14.065
	C238.84,447.325,234.144,442.578,229.986,437.575z M350.43,367.201c-0.348-0.028-0.751-0.046-1.195-0.058
	c-0.085,0.109-0.17,0.219-0.255,0.328C349.434,367.393,349.92,367.301,350.43,367.201z M451.979,265.544
	c-0.062-0.022-0.125-0.051-0.187-0.071c-1.604-0.535-4.479-0.496-7.513-0.228c-0.001,0.006-0.001,0.012-0.002,0.018
	C446.896,265.167,449.478,265.183,451.979,265.544z M312.558,222.538c0.645-0.059,1.292-0.102,1.941-0.131
	C313.867,222.416,313.219,222.459,312.558,222.538z"></path>
<path id="color_x5F_1" d="M326.751,335.829c-0.026,1.589-0.554,3.367-2.027,4.197c-0.596,0.336-1.417,0.604-2.065,0.22
	c-0.579-0.343-0.284-1.053,0.202-1.327c0.872-0.491,0.958-1.903,0.973-2.803C323.853,334.977,326.774,334.446,326.751,335.829z
	 M340.662,324.997c-1.079-1.11-1.906-2.453-2.421-3.913c-0.212-0.6-3.07,0.287-2.898,0.776c0.545,1.544,1.441,2.916,2.579,4.087
	C338.402,326.443,341.019,325.364,340.662,324.997z M335.763,327.375c0.081-0.769-0.758-1.006-1.354-1.006c-0.5,0-1,0-1.5,0
	c-0.652,0-1.514,0.497-1.588,1.203c-0.081,0.769,0.758,1.006,1.354,1.006c0.5,0,1,0,1.5,0
	C334.827,328.577,335.688,328.08,335.763,327.375z M413.153,370.269c-7.435,11.455-15.203,22.684-23.893,33.232
	c-26.196,31.799-59.752,58.136-100.153,68.521c-0.27,0.533-1.112,1.042-1.841,0.915c-8.593-1.491-16.967-4.547-24.839-8.728
	c-0.906,0.288-2.207,0.301-2.063,0.023c-0.331,0.642-7.204-0.604-8.257-0.748c-6.111-0.833-12.184-2.075-18.082-3.894
	c-15.929-4.911-30.924-13.54-41.607-26.547c-15.878-19.333-22.207-46.084-25.455-70.388c-3.092-23.14-3.021-46.979-2.743-70.29
	c0.162-13.661,0.674-27.313,1.402-40.954c0.237-4.445,0.506-8.89,0.729-13.336c0.024-0.486,0.509-3.905,0.231-4.64
	c-0.166-0.038-0.258-0.104-0.218-0.203c0.005-0.012,0.013-0.021,0.018-0.032c0.03-0.066,0.069-0.124,0.112-0.178
	c0.022-0.027,0.043-0.054,0.067-0.083c0.106-0.126,0.303-0.253,0.543-0.368c2.595-1.841,5.337-3.295,8.176-4.391
	c-3.058-8.423-3.325-18.632-3.233-27.465c0.071-6.878-0.223-19.657,6.217-24.307c6.935-5.007,14.072,0.462,18.036,6.534
	c3.157,4.836,6.271,10.753,6.838,16.61c0.889,9.195-0.287,18.671,0.087,27.932c2.666,0.77,5.279,1.759,7.81,2.938
	c0.405-0.062,0.776-0.073,0.952-0.02c0.116,0.008,0.201,0.061,0.255,0.159c0.003,0.148,0.005,0.297,0.008,0.445
	c0.302,0.149,0.604,0.297,0.902,0.453c0.237,0.123-0.242,0.481-0.88,0.758c0.379,17.616,0.412,35.244,0.737,52.862
	c0.232,12.526,0.479,25.054,0.934,37.574c0.156,4.298,0.309,8.601,0.619,12.891c0.093,1.275-0.148,3.941,0.68,5.042
	c0.096,0.127-0.495,0.491-1.175,0.739c7.119,10.501,20.487,16.767,31.894,21.128c3.069,1.173,6.218,2.299,9.421,3.324
	c3.998-48.365,1.987-96.953,1.962-145.415c0-1.016,2.897-1.518,2.898-0.776c0.025,48.717,2.045,97.56-2.008,146.178
	c-0.022,0.264-0.317,0.503-0.712,0.677c7.906,2.395,16.111,4.098,24.268,4.314c0.21-0.273,0.42-0.546,0.625-0.821
	c-15.079-16.087-16.785-43.453-15.254-64.151c1.812-24.487,10.534-49.616,24.098-70.399c-0.234-4.676-0.866-9.335-0.915-14.021
	c-0.009-0.876,2.893-1.329,2.898-0.776c0.037,3.623,0.423,7.229,0.706,10.84c1.113-1.587,2.25-3.152,3.421-4.679
	c0.306-0.399,1.319-0.57,2.052-0.61c1.724-0.963,3.965-1.809,6.478-2.456c0.526-5.229,4.01-20.468,9.398-32.233
	c-1.168,1.716-2.932,3.208-4.227,4.11c-8.662,6.031-23.068,8.452-25.753,20.063c3.004,0.391,5.835,1.376,8.316,3.268
	c0.866,0.66-1.819,1.824-2.682,1.167c-7.868-6-20.368-1.249-28.948,0.703c-1.754,0.398-2.199-1.168-0.422-1.572
	c0.407-0.093,0.823-0.191,1.243-0.292c0.105-6.268-4.082-12.791-2.06-19.008c1.354-4.161,5.36-5.332,8.894-7.239
	c11.735-6.335,23.364-9.156,36.652-9.384c3.405-0.059,8.032-0.465,9.798,3.049c0.482,0.959,0.505,1.951,0.245,2.923
	c4.691-9.389,10.658-15.761,17.293-11.296c0.628,0.422-1.94,1.583-2.709,1.066c-9.484-6.382-21.012,35.223-22.133,44.042
	c1.221-0.221,2.479-0.395,3.753-0.511c0.645-0.059,1.292-0.102,1.941-0.131c6.795-0.304,13.692,1.086,17.358,5.358
	c4.164-4.604,10.826-6.834,16.198-9.504c3.431-1.705,8.242-3.78,9.955-7.496c3.241-7.026-11.888-1.163-15.194,0.42
	c-0.054,0.119-0.113,0.234-0.166,0.353c-0.418,0.936-3.32,1.224-2.717-0.129c2.185-4.897,5.176-9.276,8-13.813
	c1.401-2.25,2.84-4.519,3.953-6.93c0.829-1.795,4.422-9.918-1.884-6.853c-6.74,3.277-9.439,12.345-13.353,18.224
	c-0.565,0.849-3.501,1.05-2.717-0.129c3.398-5.105,7.139-14.391,12.918-18.326c0.078-2.49-0.295-5.137-3.104-2.842
	c-2.554,2.087-4.813,4.537-6.924,7.064c-3.026,3.622-6.596,7.58-8.605,11.904c-0.335,0.72-3.04,0.929-2.854,0.527
	c3.002-6.461,8.9-13.123,14.172-17.869c-0.35-0.052-0.623-0.208-0.694-0.506c-0.739-3.092-1.828-4.022-4.221-1.628
	c-2.112,2.113-3.873,4.559-5.51,7.051c-2.507,3.817-4.653,7.819-6.963,11.75c-0.516,0.878-3.442,1.115-2.715-0.123
	c3.506-5.968,6.65-12.236,11.222-17.497c3.266-3.758,9.139-7.334,10.979-0.724c3.445-2.406,7.898-3.916,8.106,1.463
	c2.128-0.661,4.506-0.582,7.195,0.584c0.214,0.093,0.363,0.337,0.309,0.571c-2.271,9.74-9.105,17.295-13.548,26.051
	c5.611-2.581,11.689-4.549,17.77-2.506c0.219,0.073,0.285,0.178,0.263,0.395c-0.589,5.663-6.374,8.82-10.965,11.102
	c-5.953,2.959-13.774,5.315-17.646,11.072c-0.014,0.021-0.037,0.04-0.056,0.06c0.28,0.499,0.523,1.028,0.728,1.588
	c0.737,0.063,1.286,0.471,0.691,1.248c-0.08,0.104-0.16,0.214-0.24,0.319c0.021,0.256-0.19,0.494-0.516,0.684
	c-24.252,32.323-58.847,108.543-7.019,130.254c2.039-1.72,4.838-4.579,4.761-7.416c-0.063-2.334-3.655-3.131-5.23-3.805
	c-3.13-1.339-5.624-2.682-7.656-5.463c-4.026-5.511,3.009-12.387,3.747-17.788c0.042-0.305,0.259-0.561,0.557-0.752
	c-0.241-0.093-0.437-0.25-0.543-0.489c-1.009-2.271-0.579-4.929-0.014-7.261c0.206-0.852,1.204-1.155,1.979-1.125
	c1.709,0.064,2.445,0.805,3.201,1.927c2.328-3.885,4.471-7.903,8.352-10.479c0.406-0.269,1.017-0.328,1.522-0.239
	c-0.814-2.705-0.973-5.45-0.175-7.88c2.563-7.811,11.25-9.878,18.385-11.573c0.134-0.032,0.243-0.033,0.36-0.044
	c0.04-0.061,0.074-0.121,0.115-0.182c0.787-1.172,3.489-0.61,2.447,0.939c-9.802,14.583,11.452,25.374,20.288,33.15
	c4.923,4.333,3.927,9.949,0.819,14.853c-0.539,1.292-1.104,2.37-1.581,3.027c-1.944,2.674-11.45,10.533-19.788,13.495
	c-3.312,3.267-6.183,7.012-9.02,10.676c-0.085,0.109-0.17,0.219-0.255,0.328c0.454-0.079,0.94-0.17,1.45-0.271
	c7.148-1.408,19.287-4.774,20.512-5.28c7.588-3.138,14.556-8.002,20.687-13.693c3.585-3.327,6.884-6.935,9.852-10.65
	c1.242-1.556,2.425-3.141,3.578-4.739c14.054-19.479,21.709-42.091,26.683-65.552c-0.005,0-0.01,0-0.014,0
	c-1.961-0.058,0.049-1.659,1.131-1.627c2.816,0.083,5.672-0.1,8.51-0.257c0.288-5.429,1.928-11.661-1.267-16.462
	c-2.242-3.372-5.304-6.194-7.404-9.647c-1.978-3.251-4.629-8.449-3.004-12.318c1.164-2.771,5.796-4.924,8.466-2.776
	c3.996,3.215,4.874,9.315,8.629,12.63c4.993,1.338,9.728-9.213,11.57-12.591c2.211-4.052,4.037-8.362,8.102-10.837
	c3.352-2.042,6.104-0.482,6.52,2.964c0.02-0.004,0.04-0.01,0.06-0.013c4.106-0.647,5.939,0.867,6.414,3.433
	c4.055-0.913,6.739,2.147,6.405,7.058c0.327,0.044,0.608,0.195,0.759,0.485c3.835,7.388-1.775,14.954-6.59,20.368
	c-5.959,6.701-15.292,13.021-18.846,21.454c-0.006,0.014-0.016,0.025-0.022,0.038c0.501,0.374,0.994,0.776,1.479,1.22
	c0.542,0.495-0.622,1.182-1.629,1.318c-0.433,0.059-0.837,0.017-1.063-0.189c-4.891-4.471-10.736-4.948-16.767-4.716
	c-0.416,0.128-0.875,0.158-1.232,0.055c-2.48,0.129-4.982,0.339-7.454,0.407c-6.311,29.544-17.304,60.326-40.528,80.922
	c-3.484,3.09-7.118,5.896-10.938,8.354c-1.697,1.093-3.435,2.11-5.208,3.06c-4.859,2.602-10.013,4.654-15.532,6.026
	c-1.008,0.25-9.509,2.301-15.083,3.01c-0.302,0.168-0.633,0.281-0.938,0.281c-4.714-0.002-9.346-0.108-13.915-0.968
	c-0.043-0.008-0.087-0.02-0.13-0.028c-1.435-0.275-2.863-0.619-4.286-1.064c-0.449-0.141-0.615-0.356-0.605-0.591
	c-56.635-20.843-21.516-99.526,3.868-133.458c-0.183-0.671-0.423-1.299-0.718-1.886c-1.617-3.216-4.827-5.202-8.643-6.231
	c-4.393-1.185-9.576-1.111-14.014-0.209c-0.283,0.101-0.595,0.171-0.889,0.196c-2.213,0.517-4.205,1.239-5.77,2.112
	c-0.356,0.199-1.037,0.278-1.568,0.23c-1.879,2.489-3.699,5.053-5.434,7.705c0.037,0.78,0.066,1.56,0.077,2.341
	c0.008,0.594-1.329,0.995-2.19,1.016c-12.346,20.023-20.495,43.868-21.993,66.904c-1.399,21.526,0.156,50.255,17.104,65.993
	c0.229,0.212-0.785,0.758-1.663,0.978c-0.287,0.129-0.575,0.218-0.796,0.227c-0.417,0.016-0.836,0.015-1.254,0.022
	c-9.412,11.605-22.807,20.216-38.204,19.631c-1.965-0.075-0.083-1.81,1.094-1.765c13.856,0.525,25.804-7.497,34.287-17.873
	c-0.608-0.014-1.217-0.033-1.827-0.062c-1.47-0.071-2.941-0.179-4.415-0.334c-10.554-1.112-21.128-4.286-30.76-8.077
	c-3.894-1.533-7.988-3.251-11.988-5.256c-1.442-0.723-2.873-1.479-4.276-2.283c-5.682-3.251-10.914-7.215-14.809-12.203
	c-7.291,30.468-2.811,62.435,16.547,87.847c13.757,18.06,34.262,34.009,56.957,38.727c0.131-0.069,0.276-0.131,0.45-0.173
	c11.783-2.855,23.226-7.011,34.021-12.544c34.488-17.678,61.741-46.42,83.311-78.175c8.096-11.919,16.644-23.58,24.593-35.581
	c7.709-11.636,13.439-23.785,18.957-36.552c4.923-11.392,10.632-22.837,13.433-34.989c0.058-0.25,0.205-0.463,0.403-0.638
	c0.89-0.784,2.827-0.769,2.544,0.458c-3.698,16.04-11.503,31.821-18.32,46.752C436.934,337.776,424.215,353.227,413.153,370.269z
	 M443.512,249.028c2.707,4.748,1.031,11.016,0.768,16.217c-0.001,0.006-0.001,0.012-0.002,0.018c2.618-0.096,5.2-0.08,7.701,0.281
	c2.394,0.345,4.711,1.011,6.913,2.198c3.195-6.52,9.802-11.544,14.708-16.636c4.555-4.727,12.498-12.254,11.316-19.622
	c-1.697,5.215-5.343,10.126-8.919,13.89c-0.86,0.906-3.66,0.512-2.41-0.803c3.332-3.507,6.51-7.92,8.226-12.478
	c0.881-2.341,2.505-11.677-2.239-10.285c-0.286,6.434-5.823,16.498-7.958,19.6c-0.427,0.621-3.269,1.032-2.646,0.129
	c1.568-2.281,7.234-13.075,7.673-19.392c-0.3-0.294-0.364-0.726,0.024-1.129c-0.1-2.263-1.125-3.68-3.635-3.467
	c-0.154,7.831-5.141,13.825-9.36,20.066c-0.669,0.99-3.628,1.004-2.758-0.283c3.745-5.538,11.455-14.066,8.977-21.426
	c-1.635-4.855-8.974,9.008-9.794,10.463c-2.45,4.347-7.168,12.984-12.98,12.87c-0.525,0.183-1.106,0.227-1.457,0.007
	c-0.18-0.113-0.331-0.255-0.5-0.379c-0.652-0.238-1.315-0.589-1.989-1.081c-0.465-0.34-0.437-0.732-0.17-1.066
	c-1.772-2.316-2.923-5.25-4.429-7.635c-0.675-1.069-1.524-2.708-2.68-3.339c-2.677-1.461-3.635,1.147-3.638,2.739
	c-0.004,2.004,0.461,4.002,1.212,5.857C435.732,239.946,440.55,243.833,443.512,249.028z M333.628,358.566
	c0.007,0.002,0.015,0.002,0.021,0.004c5.788,1.813,11.657,1.937,17.669,1.939c0.242,0,0.427,0.03,0.563,0.082
	c0.986-1.159,2.006-2.287,3.063-3.376c-1.275,0.085-2.525-0.05-3.723-0.339c-3.981-0.233-7.84-1.801-11.19-5.187
	c-0.545-0.174-1.083-0.411-1.601-0.712c-0.164-0.096,0.07-0.32,0.467-0.542c-0.395-0.725,2.198-1.644,2.749-0.998
	c0.35,0.41,0.706,0.788,1.065,1.151c0.494,0.029,1.012,0.058,1.479,0.082c0.27-0.139,0.531-0.354,0.786-0.688
	c0.834-1.092,1.301-2.562,1.316-3.93c0.031-2.56-1.222-5.068-3.622-5.509c-0.552,0.997-3.127,1.276-2.838,0.069
	c1.48-6.175,2.121-13.521,7.83-17.078c-4.113-2.101-7.996-6.678-9.847-11.58c-0.032,0.023-0.056,0.046-0.092,0.07
	c-3.809,2.528-5.737,6.774-8.063,10.55c-0.254,0.412-0.957,0.669-1.604,0.723c-0.557,0.702-2.12,1.041-2.595,0.297
	c-0.24-0.376-0.426-0.767-0.635-1.109c-0.231,1.557-0.232,3.141,0.415,4.599c0.174,0.392-0.051,0.747-0.438,0.999
	c0.309,0.127,0.506,0.37,0.452,0.76c-0.624,4.559-4.522,8.282-4.842,12.739c-0.448,6.236,5.67,7.928,10.19,10.054
	C334.305,353.375,334.72,355.964,333.628,358.566z M328.956,364.462c0.561,0.208,1.114,0.421,1.694,0.617
	c0.33,0.111,0.504,0.261,0.569,0.427c5.094,1.335,10.255,1.49,15.522,1.501c1.188-1.53,2.382-3.067,3.609-4.578
	c-0.027,0.001-0.057,0.007-0.085,0.007c-6.032-0.003-11.929-0.185-17.734-1.894C331.564,361.958,330.271,363.311,328.956,364.462z
	 M312.964,186.603c-1.467-1.673-4.97-1.345-6.926-1.276c-12.05,0.423-22.86,2.357-33.612,8.161
	c-4.509,2.434-9.511,3.716-9.168,9.867c0.282,5.077,2.463,9.712,2.502,14.812c5.281-1.334,11.198-2.839,16.739-2.743
	c1.956-7.678,8.237-11.551,15.1-14.813c3.899-1.854,8.12-3.674,11.563-6.322C310.964,192.902,315.364,189.344,312.964,186.603z
	 M178.119,227.21c7.149-2.13,14.786-2.146,22.156-0.484c-0.268-12.713,2.166-25.961-3.785-37.654
	c-3.452-6.784-14.341-20.906-19.044-7.596c-2.857,8.087-2.81,17.301-2.318,25.766C175.507,213.792,175.896,220.952,178.119,227.21z
	 M260.221,463.001c-5.754-3.248-11.216-7.091-16.271-11.361c-5.11-4.315-9.807-9.062-13.964-14.065
	c-0.988-1.189-1.947-2.392-2.873-3.607c-20.559-26.988-25.333-60.553-16.66-92.941c-0.035-0.057-0.076-0.109-0.11-0.166
	c-0.104-0.172,0.038-0.376,0.305-0.563c0.063-0.229,0.119-0.459,0.184-0.688c0.099-0.352,0.444-0.631,0.864-0.814
	c-0.064-1.091-0.017-2.222-0.063-2.934c-0.273-4.14-0.44-8.288-0.588-12.434c-0.444-12.521-0.703-25.048-0.933-37.574
	c-0.228-12.441-0.411-24.884-0.567-37.327c-0.017-1.321,0.146-13.613,0.088-16.445c-2.526-1.26-5.157-2.331-7.85-3.169
	c-0.716,0.148-1.429,0.155-1.439-0.054c-0.006-0.125-0.007-0.25-0.012-0.375c-10.437-2.902-21.624-2.266-30.872,4.206
	c0.397,1.207-0.212,4.661-0.249,5.362c-0.271,5.08-0.57,10.158-0.829,15.238c-0.808,15.909-1.382,31.842-1.298,47.773
	c0.12,22.845-0.016,46.013,3.981,68.576c4.292,24.23,11.202,50.763,29.573,68.34c11.857,11.345,26.858,18.729,42.791,22.381
	c4.975,1.14,10.013,1.978,15.091,2.491C258.644,462.864,259.372,462.915,260.221,463.001z M400.254,260.841c0-32,0-64,0-96
	c0-1.436-2.924-0.93-2.924,0.264c0,32,0,64,0,96C397.33,262.541,400.254,262.034,400.254,260.841z M368.26,294.861
	c0-17.667,0-35.333,0-53c0-1.52-2.936-1.077-2.936,0.223c0,17.667,0,35.333,0,53C365.324,296.604,368.26,296.161,368.26,294.861z
	 M329.332,266.112c0,5.667,0,11.333,0,17c0,1.406,2.92,0.879,2.92-0.278c0-5.667,0-11.333,0-17
	C332.252,264.428,329.332,264.954,329.332,266.112z M242.241,243.584c0-27,0-54,0-81c0-0.413-2.898-0.014-2.898,0.776
	c0,27,0,54,0,81C239.343,244.774,242.241,244.375,242.241,243.584z M240.343,295.361c0,11.667,0,23.333,0,35
	c0,0.811,2.898,0.288,2.898-0.776c0-11.667,0-23.333,0-35C243.241,293.774,240.343,294.296,240.343,295.361z M475.607,431.285
	c-15.204,4.957-42.685,7.659-49.246,25.217c-6.486-7.3-11.44-15.917-20.776-19.896c0.267-0.137,0.481-0.319,0.572-0.541
	c3.384-8.214,8.845-13.898,16.161-17.681c0,2.226,0,4.452,0,6.677c0,1.603,2.947,1.231,2.947-0.179c0-2.628,0-5.256,0-7.885
	c1.16-0.49,2.356-0.944,3.597-1.355c8.884-2.944,18.261-4.167,27.291-6.598c6.468,6.237,9.077,15.23,14.289,22.479
	c0.535,0.744,3.339-0.214,2.699-1.104c-5.662-7.875-8.205-17.755-16-24c-0.762-0.611-3.428,0.521-2.699,1.104
	c0.054,0.042,0.101,0.089,0.153,0.132c-9.821,2.571-20.229,4.195-29.33,7.784c0-4.519,0-9.038,0-13.557
	c0-1.603-2.947-1.231-2.947,0.179c0,4.876,0,9.752,0,14.629c-8.061,3.719-14.845,9.363-18.892,19.189
	c-0.118,0.288-0.091,0.506,0.026,0.666c-0.806,0.313-1.467,0.819-0.829,1.07c10.442,4.124,15.361,14.222,22.814,21.894
	c0.015,0.015,0.034,0.023,0.051,0.037c-0.045,0.208-0.104,0.406-0.144,0.618c-0.198,1.063,2.715,0.564,2.893-0.383
	c3.699-19.771,32.259-22.075,47.738-27.121C477.661,432.111,477.327,430.725,475.607,431.285z M436.343,366.361c0,12,0,24,0,36
	c0,0.372,2.898-0.016,2.898-0.776c0-12,0-24,0-36C439.241,365.213,436.343,365.6,436.343,366.361z M96.293,283.938
	c4.576-5.869,11.732-8.068,19.062-9.6c-0.021-0.081-0.032-0.168-0.032-0.264c0-11,0-22,0-33c0-1.342,2.939-1.758,2.939-0.205
	c0,10.963,0,21.926,0,32.889c2.751-0.529,5.48-1.022,8.062-1.636c0-3.015,0-6.03,0-9.044c0-1.326,2.938-1.752,2.938-0.212
	c0,2.843,0,5.687,0,8.53c0.031-0.003,0.052,0,0.082-0.001c-0.351-0.924,1.684-1.917,2.567-1.254
	c7.686,5.762,13.046,14.135,15.331,23.443c0.297,1.212-2.042,1.95-2.733,1.095c-0.035,0.017-0.063,0.035-0.1,0.051
	c-7.818,3.447-15.718,6.662-23.309,10.579c0.006,0.008,0.013,0.016,0.019,0.024c0.884,1.173-1.736,2.282-2.595,1.336
	c-0.038,0.021-0.077,0.04-0.115,0.061c-1.385,0.756-2.972-0.567-1.232-1.517c0.055-0.03,0.111-0.058,0.166-0.088
	c-5.988-7.88-12.739-15.965-22.386-19.174C93.361,285.421,95.042,283.879,96.293,283.938z M98.296,284.614
	c9.134,3.654,15.758,11.441,21.632,19.148c7.572-3.904,15.451-7.11,23.248-10.547c0.273-0.121,0.555-0.167,0.818-0.16
	c-2.332-8.336-7.201-15.832-14.12-21.094c-0.128,0.118-0.334,0.234-0.613,0.343c0,3.521,0,7.042,0,10.563
	c0,1.326-2.938,1.752-2.938,0.212c0-3.332,0-6.663,0-9.995c-2.752,0.625-5.682,1.102-8.608,1.657
	c-0.424,0.273-1.016,0.388-1.508,0.295C109.157,276.458,102.322,278.575,98.296,284.614z M266.926,161.932
	c0.158-0.01,0.314-0.01,0.473-0.018c0.043-0.102,0.102-0.207,0.193-0.323c8.84-11.151,21.933-17.152,35.751-20.362
	c0-5.956,0-11.912,0-17.868c0-0.907,2.898-1.357,2.898-0.776c0,6.005,0,12.011,0,18.017c3.023-0.616,6.069-1.11,9.102-1.501
	c0-1.58,0-3.159,0-4.739c0-0.939,2.898-1.406,2.898-0.776c0,1.724,0,3.447,0,5.171c3.276-0.358,6.524-0.609,9.696-0.781
	c1.137-0.062,1.396,0.575,1.111,1.146c10.578-2.004,19.521,1.999,28.1,8.327c0.595,0.439-1.991,1.583-2.713,1.051
	c-0.543-0.4-1.09-0.793-1.639-1.179c-0.274,0.276-0.691,0.502-1.179,0.545c-10.08,0.902-20.068,5.69-29.102,9.96
	c-7.576,3.581-15.091,7.417-22.258,11.789c0.088,0.706-1.26,1.571-2.181,1.353c-0.792,0.501-1.584,1.001-2.366,1.517
	c-1.011,0.667-3.483,0.063-1.84-1.021c0.663-0.438,1.338-0.86,2.009-1.289c-9.531-3.5-18.834-6.811-29.223-6.161
	C264.679,164.137,265.305,162.034,266.926,161.932z M270.404,161.858c9.828,0.129,18.777,3.322,28.032,6.714
	c7.744-4.749,15.906-8.924,24.132-12.7c8.935-4.101,18.641-8.611,28.552-9.697c-6.958-4.609-14.491-7.696-23.176-5.636
	c-1.085,0.257-1.606-0.102-1.407-0.504c-2.724,0.162-5.498,0.382-8.296,0.683c0,2.622,0,5.244,0,7.866
	c0,0.939-2.898,1.406-2.898,0.776c0-2.767,0-5.534,0-8.301c-3.035,0.388-6.081,0.879-9.102,1.501c0,1.008,0,2.016,0,3.023
	c0,0.907-2.898,1.357-2.898,0.776c0-1.052,0-2.104,0-3.156C290.653,146.207,278.683,151.722,270.404,161.858z M146.738,402.139
	c0.074-0.112,0.135-0.232,0.162-0.365c5.756-28.198-46.293-30.322-44.324-3.003c-6.763-1.031-13.602,0.555-19.017,5.065
	c-4.542,3.783-8.366,12.232-1.938,16.125c0.713,0.432,3.116-0.754,2.73-0.987c-4.213-2.551-3.744-7.293-1.659-11.155
	c4.147-7.685,13.278-9.423,21.091-7.14c0.665,0.195,3.229-0.875,2.381-1.123c-0.234-0.068-0.471-0.124-0.706-0.186
	c0.071-0.16,0.105-0.333,0.085-0.521c-2.74-24.659,43.61-22.313,38.417,3.13c-0.053,0.256-0.001,0.453,0.114,0.603
	c-0.747,0.36-1.315,0.801-0.451,0.808c6.394,0.055,13.171,0.58,18.363,4.701c4.854,3.853,5.784,10.598,5.89,16.372
	c0.106,5.817-0.544,12.299-5.745,15.813c-6.738,4.555-17.754,4.029-25.533,4.616c-8.777,0.662-17.578,1.045-26.379,1.185
	c-8.416,0.134-17.311,0.364-25.633-1.16c-5.785-1.059-10.291-5.492-11.863-11.055c-2.035-7.201,2.773-12.852,10.216-12.002
	c0.68,0.078,3.356-1.099,1.855-1.271c-5.224-0.597-10.734,0.485-13.857,5.062c-3.368,4.936-0.933,11.745,2.664,15.748
	c5.531,6.158,15.396,5.624,22.901,5.874c11.979,0.399,24.004-0.117,35.957-0.903c12.205-0.802,34.765,0.398,37.803-15.391
	c1.388-7.211,0.895-16.112-3.748-22.087C162.045,403.143,153.599,402.271,146.738,402.139z M525.259,339.854
	c-2.728,10.201-18.391,9.366-26.518,9.881c-8.411,0.533-16.892,0.916-25.318,0.525c-4.984-0.231-11.437-0.102-14.744-4.633
	c-4.977-6.815-0.739-13.017,6.163-13.736c-0.06-0.015-0.113-0.036-0.16-0.064c-4.392-2.66-1.774-8.427,1.325-11.01
	c3.617-3.014,8.216-4.239,12.773-3.756c-0.64-18.571,34.642-17.088,30.886,2.295c-0.006,0.029-0.02,0.055-0.027,0.083
	c4.629,0.12,10.414,0.739,13.313,4.691C526.063,328.372,526.601,334.835,525.259,339.854z M522.847,333.581
	c-0.686-9.743-7.076-12.775-16.171-12.892c-0.723-0.009-0.445-0.319,0.102-0.63c-0.064-0.134-0.089-0.297-0.051-0.495
	c3.229-16.661-26.599-18.353-24.982-2.273c0.012,0.114-0.002,0.222-0.027,0.326c0.121,0.033,0.242,0.06,0.362,0.095
	c0.848,0.248-1.716,1.318-2.381,1.123c-5.049-1.476-10.707-0.409-13.385,4.554c-1.393,2.579-1.717,5.747,1.099,7.452
	c0.263,0.159-0.769,0.759-1.678,0.989c0.597-0.021,1.208-0.006,1.835,0.057c1.498,0.149-1.177,1.338-1.855,1.271
	c-5.246-0.522-7.635,4.124-5.887,8.564c1.754,4.454,5.471,6.501,10.124,6.916c10.926,0.974,22.044,0.468,32.964-0.382
	c4.91-0.382,12.527,0.037,16.613-3.186C522.875,342.428,523.123,337.509,522.847,333.581z" fill="#000000"></path>
</svg>